<svg width="143" height="143" viewBox="0 0 143 143" fill="none" xmlns="http://www.w3.org/2000/svg">
<path d="M71.5 143C110.988 143 143 110.988 143 71.5C143 32.0116 110.988 0 71.5 0C32.0116 0 0 32.0116 0 71.5C0 110.988 32.0116 143 71.5 143Z" fill="#46B03C"/>
<path d="M71.5 135.2C106.681 135.2 135.2 106.681 135.2 71.5C135.2 36.3195 106.681 7.8 71.5 7.8C36.3195 7.8 7.8 36.3195 7.8 71.5C7.8 106.681 36.3195 135.2 71.5 135.2Z" stroke="white" stroke-width="4" stroke-miterlimit="10" stroke-linejoin="round"/>
<path d="M22.4 31.1L121 111.5" stroke="white" stroke-width="4" stroke-miterlimit="10" stroke-linejoin="round"/>
<path d="M71 124V108" stroke="white" stroke-width="2" stroke-miterlimit="10" stroke-linejoin="round"/>
<path d="M67.9 62.4C71.8 68.6 70.6 76.3 70.6 76.3C70.6 76.3 63.1 74 59.2 67.8C55.3 61.6 56.5 53.9 56.5 53.9C56.5 53.9 64 56.2 67.9 62.4Z" fill="white"/>
<path d="M67.9 47.1C71.8 53.3 70.6 61 70.6 61C70.6 61 63.1 58.7 59.2 52.5C55.3 46.3 56.5 38.6 56.5 38.6C56.5 38.6 64 40.9 67.9 47.1Z" fill="white"/>
<path d="M76.4 37.3C76.4 44.6 71.3 50.5 71.3 50.5C71.3 50.5 66.2 44.6 66.2 37.3C66.2 30 71.3 24.1 71.3 24.1C71.3 24.1 76.4 30 76.4 37.3Z" fill="white"/>
<path d="M67.9 93.2C71.8 99.4 70.6 107.1 70.6 107.1C70.6 107.1 63.1 104.8 59.2 98.6C55.3 92.4 56.5 84.7 56.5 84.7C56.5 84.7 64 87 67.9 93.2Z" fill="white"/>
<path d="M67.9 78C71.8 84.2 70.6 91.9 70.6 91.9C70.6 91.9 63.1 89.6 59.2 83.4C55.3 77.2 56.5 69.5 56.5 69.5C56.5 69.5 64 71.8 67.9 78Z" fill="white"/>
<path d="M74.6 62.4C70.7 68.6 71.9 76.3 71.9 76.3C71.9 76.3 79.4 74 83.3 67.8C87.2 61.6 86 53.9 86 53.9C86 53.9 78.5 56.2 74.6 62.4Z" fill="white"/>
<path d="M74.6 47.1C70.7 53.3 71.9 61 71.9 61C71.9 61 79.4 58.7 83.3 52.5C87.2 46.3 86 38.7 86 38.7C86 38.7 78.5 40.9 74.6 47.1Z" fill="white"/>
<path d="M74.6 93.2C70.7 99.4 71.9 107.1 71.9 107.1C71.9 107.1 79.4 104.8 83.3 98.6C87.2 92.4 86 84.7 86 84.7C86 84.7 78.5 87 74.6 93.2Z" fill="white"/>
<path d="M74.6 78C70.7 84.2 71.9 91.9 71.9 91.9C71.9 91.9 79.4 89.6 83.3 83.4C87.2 77.2 86 69.5 86 69.5C86 69.5 78.5 71.8 74.6 78Z" fill="white"/>
</svg>
