<svg width="143" height="143" viewBox="0 0 143 143" fill="none" xmlns="http://www.w3.org/2000/svg">
<path d="M71.5 143C110.988 143 143 110.988 143 71.5C143 32.0116 110.988 0 71.5 0C32.0116 0 0 32.0116 0 71.5C0 110.988 32.0116 143 71.5 143Z" fill="#46B03C"/>
<path d="M71.5 137.2C35.3 137.2 5.8 107.7 5.8 71.5C5.8 35.3 35.3 5.8 71.5 5.8C107.7 5.8 137.2 35.3 137.2 71.5C137.2 107.7 107.7 137.2 71.5 137.2ZM71.5 9.8C37.5 9.8 9.8 37.5 9.8 71.5C9.8 105.5 37.5 133.2 71.5 133.2C105.5 133.2 133.2 105.5 133.2 71.5C133.2 37.5 105.5 9.8 71.5 9.8Z" fill="white"/>
<path d="M23.6584 29.5485L21.1288 32.6469L119.735 113.151L122.265 110.053L23.6584 29.5485Z" fill="white"/>
<path d="M46.4 112.3V38.7L55.8 32.6V26.5L84.7 23.1V29.1L95.5 40.5V116.5L66.4 121.2L46.4 112.3Z" fill="white"/>
<path d="M66.4 122.2C66.3 122.2 66.1 122.2 66 122.1L46 113.2C45.6 113 45.4 112.7 45.4 112.3V38.7C45.4 38.4 45.6 38 45.9 37.9L54.8 32.1V26.5C54.8 26 55.2 25.6 55.7 25.5L84.6 22.1C84.9 22.1 85.2 22.2 85.4 22.3C85.6 22.5 85.7 22.8 85.7 23V28.6L96.2 39.7C96.4 39.9 96.5 40.1 96.5 40.4V116.4C96.5 116.9 96.1 117.3 95.7 117.4L66.6 122.1C66.5 122.2 66.5 122.2 66.4 122.2ZM47.4 111.7L66.5 120.2L94.5 115.7V40.9L84 29.8C83.8 29.6 83.7 29.4 83.7 29.1V24.2L56.8 27.4V32.6C56.8 32.9 56.6 33.3 56.3 33.4L47.4 39.2V111.7V111.7Z" fill="#46B03C"/>
<path d="M67 44.7C66.9 44.7 66.8 44.7 66.8 44.7L46.2 39.7L46.7 37.8L67.1 42.8L95.4 39.6L95.6 41.6L67.1 44.8C67.1 44.7 67 44.7 67 44.7Z" fill="#46B03C"/>
<path d="M68 121.2H66V44.1L55.1 33.3C54.8 33 54.7 32.6 54.9 32.3C55 31.9 55.3 31.7 55.7 31.6L84.6 28.1L84.8 30.1L58 33.3L67.7 42.9C67.9 43.1 68 43.3 68 43.6V121.2Z" fill="#46B03C"/>
</svg>
